<?xml version="1.0" encoding="UTF-8"?>
<svg xmlns="http://www.w3.org/2000/svg" viewBox="0 0 512 512">
  <defs>
    <linearGradient id="g" x1="0" x2="1">
      <stop offset="0" stop-color="#06b6d4"/>
      <stop offset="1" stop-color="#10b981"/>
    </linearGradient>
    <filter id="shadow" x="-20%" y="-20%" width="140%" height="140%">
      <feDropShadow dx="0" dy="6" stdDeviation="12" flood-color="#000" flood-opacity="0.25"/>
    </filter>
  </defs>
  <rect width="512" height="512" rx="72" fill="url(#g)"/>
  <g transform="translate(0,0)" filter="url(#shadow)">
    <path d="M170 330c0-66 80-120 150-120 22 0 36 6 36 28 0 42-96 44-122 64-18 14-30 24-30 48 0 22 16 44 44 44 52 0 164-58 164-164 0-94-86-152-174-152-106 0-198 68-198 170 0 100 92 178 204 178 46 0 90-12 124-30" fill="#ffffff" opacity="0.06"/>
  </g>
  <g fill="#fff" font-family="Arial, Helvetica, sans-serif" font-weight="700" font-size="220" text-anchor="middle">
    <text x="50%" y="63%" dominant-baseline="middle">P</text>
  </g>
</svg>
